<svg xmlns="http://www.w3.org/2000/svg" viewBox="0 0 64 64">
    <path fill="#ffe9a0" d="M34.51 55.51A5.088 5.088 0 0038.108 57H51l8-9v-7l.925-.925A3.67 3.67 0 0061 37.48v-6.192a3.67 3.67 0 00-.804-2.293l-2.599-3.249a3.67 3.67 0 01-.754-1.689l-.513-3.077a3.67 3.67 0 00-2.175-2.77l-3.38-1.45a3.67 3.67 0 01-2.154-2.653l-.112-.56a3.67 3.67 0 00-3.08-2.914l-2.525-.361A3.67 3.67 0 0140.14 8.28l-.126-.251A3.67 3.67 0 0036.732 6h-9.464a3.67 3.67 0 00-3.282 2.029l-.126.251a3.67 3.67 0 01-2.764 1.992l-2.525.36a3.67 3.67 0 00-3.08 2.915l-.112.56a3.67 3.67 0 01-2.154 2.654l-3.38 1.448a3.67 3.67 0 00-2.175 2.77l-.513 3.078a3.67 3.67 0 01-.754 1.69l-2.599 3.248A3.67 3.67 0 003 31.288v6.192a3.67 3.67 0 001.075 2.595L5 41v9l6 7h17.584a6 6 0 002.683-.633l2.088-1.045a1 1 0 011.155.188z"/>
    <g fill="#e6d290">
        <path d="M45.944 34a2.608 2.608 0 01-1.232-1.81l-.498-2.991a4.607 4.607 0 00-1.668-2.843l-2.525-2.02a4.647 4.647 0 00-3.999-.873l-1.833.459a2.62 2.62 0 01-.633.078h-1.97a4.587 4.587 0 00-1.458.237l-1.621.54-1.259-2.516A5.865 5.865 0 0021.973 19H20v2h1.973a3.876 3.876 0 013.486 2.155l1.133 2.266a4.617 4.617 0 00-2.984 3.438l-.374 1.871a2.611 2.611 0 01-.714 1.336l-1.86 1.86a4.605 4.605 0 00-1.262 4.165l.364 1.814a4.606 4.606 0 001.64 2.698l3.141 2.512a2.606 2.606 0 01.846 1.213 4.62 4.62 0 003.47 3.064l1.294.258a4.603 4.603 0 003.786-.92l2.696-2.157A2.622 2.622 0 0138.267 46H41v-2h-2.733a4.632 4.632 0 00-2.881 1.01l-2.697 2.158a2.604 2.604 0 01-2.143.521l-1.295-.258a2.618 2.618 0 01-1.965-1.735 4.6 4.6 0 00-1.494-2.143l-3.14-2.512a2.613 2.613 0 01-.93-1.527l-.363-1.815a2.61 2.61 0 01.714-2.359l1.86-1.859a4.6 4.6 0 001.262-2.357l.374-1.873a2.616 2.616 0 011.736-1.965l3.457-1.152a2.593 2.593 0 01.824-.134h1.97a4.613 4.613 0 001.118-.138l1.833-.458a2.629 2.629 0 012.264.494l2.526 2.02a2.608 2.608 0 01.944 1.61l.498 2.991a4.603 4.603 0 002.176 3.196l3.57 2.142 1.03-1.714zM35.276 54.804a6.99 6.99 0 00.44-.575l1.116-1.674-1.664-1.11-1.116 1.675a5.006 5.006 0 01-1.924 1.698l-1.309.654a5.026 5.026 0 01-2.235.528H21v2h7.584a7.033 7.033 0 003.13-.739l1.308-.654a6.974 6.974 0 00.753-.44A6.949 6.949 0 0038.485 58H43v-2h-4.515a4.949 4.949 0 01-3.21-1.196z"/>
        <path d="M30 43h2v2h-2zM28 52h2v2h-2zM21 47h2v2h-2zM37 37h2v2h-2zM24 37h2v2h-2zM29 30h2v2h-2zM36 12h2v2h-2zM42 20h2v2h-2zM49 22h2v2h-2zM26 12h2v2h-2zM30 17h2v2h-2zM15 22h2v2h-2zM19 27h2v2h-2z"/>
    </g>
    <path fill="#4dc46e" d="M4.25 42.438l2.312-2.89A2 2 0 007 38.298v-2.631a2 2 0 01.4-1.2l2.2-2.934a2 2 0 00.4-1.2V29a2 2 0 012-2 2 2 0 012 2v2.732a2 2 0 00.07.526l2.442 8.954A13.843 13.843 0 0117 44.854a10 10 0 004.188 8.137l1.983 1.417A1.98 1.98 0 0124 56.019 1.98 1.98 0 0122.02 58H15A12 12 0 013 46a5.702 5.702 0 011.25-3.562z"/>
    <path fill="#43aa60" d="M13.64 56.056a11.052 11.052 0 01-1.794-10.728l.079-.218a10.534 10.534 0 00.33-6.21l-.284-1.142-1.942.484.286 1.143a8.554 8.554 0 01-.268 5.04l-.08.217a13.056 13.056 0 002.122 12.676l.32.394A12.02 12.02 0 0015 58h.221z"/>
    <path fill="#4dc46e" d="M59.75 42.438l-2.312-2.89a2 2 0 01-.438-1.25v-2.631a2 2 0 00-.4-1.2l-2.2-2.934a2 2 0 01-.4-1.2V29a2 2 0 00-2-2 2 2 0 00-2 2v2.732a2 2 0 01-.07.526l-2.442 8.954A13.843 13.843 0 0047 44.854a10 10 0 01-4.188 8.137l-1.983 1.417A1.98 1.98 0 0040 56.019 1.98 1.98 0 0041.98 58H49a12 12 0 0012-12 5.702 5.702 0 00-1.25-3.562z"/>
    <path fill="#43aa60" d="M54.022 44.613l-.07-.191a8.546 8.546 0 01-.266-5.038l.284-1.142-1.94-.484-.285 1.141a10.538 10.538 0 00.33 6.21l.069.19A11.043 11.043 0 0150.32 56.06L48.73 58H49a12.026 12.026 0 002.543-.276l.324-.395a13.054 13.054 0 002.155-12.716z"/>
</svg>
