<svg xmlns="http://www.w3.org/2000/svg" viewBox="0 -19 512 512">
    <path fill="#fff3d7" d="M123.992 426.746s-42.676 2.922-82.066-21.883C2.8 380.227-31.387 287.781 48.492 225.41c79.875-62.37 98.477-97.387 98.477-97.387h26.261v298.723zm0 0"/>
    <path fill="#f9dbaa" d="M135.48 377.93H86.242s-40.52 2.765-79.035-20.04c7.79 21.215 20.941 38.301 34.719 46.973 39.39 24.805 82.066 21.887 82.066 21.887h49.242zm0 0"/>
    <path fill="#fff3d7" d="M268.43 426.746s42.675 2.922 82.066-21.883c39.129-24.636 73.313-117.082-6.562-179.453-79.88-62.37-98.48-97.387-98.48-97.387H219.19v298.723zm0 0"/>
    <path fill="#f9dbaa" d="M366.316 246.984c16.641 51.008-8.722 103.012-36.609 120.57-39.39 24.801-82.066 21.884-82.066 21.884h-28.45v37.312h49.239s42.675 2.918 82.066-21.887c34.816-21.922 65.723-97.539 15.82-157.879zm0 0"/>
    <path fill="#fff3d7" d="M196.21 443.16c96.294 0 134.052-68.492 121.462-143.344-7.102-42.203-32.281-77.687-53.617-122.55-29.793-62.645-39.387-127.442-42.414-158.48C220.6 8.132 211.664 0 200.96 0h-9.5c-10.703 0-19.637 8.133-20.676 18.785-3.027 31.04-12.62 95.836-42.414 158.48-21.34 44.864-46.52 80.348-53.617 122.551C62.16 374.668 99.918 443.16 196.21 443.16zm0 0"/>
    <path fill="#f9dbaa" d="M317.672 299.816c-4.203-24.972-14.735-47.593-27.055-71.199 1.258 4.695 2.324 9.453 3.137 14.301 12.594 74.848-25.164 143.344-121.457 143.344-45.863 0-78.438-15.543-98.625-39.907 7.324 54.473 46.84 96.805 122.539 96.805 96.293 0 134.05-68.492 121.46-143.344zm0 0"/>
    <path fill="#fff3d7" d="M296.121 383.809c-13.726 9.68-12.941 30.226 1.426 38.925 54.355 32.922 126.113 25.91 173.062-21.035 46.91-46.91 53.946-118.597 21.11-172.937-8.707-14.41-29.34-15.149-38.985-1.348l-41.71 59.676a215.557 215.557 0 01-52.434 52.66zm0 0"/>
    <g fill="#f9dbaa">
        <path d="M506.594 263.066c-2.59 32.286-16.223 63.856-40.922 88.555-43.871 43.871-109.41 52.856-162.168 26.977l-7.383 5.21c-13.726 9.676-12.941 30.227 1.426 38.926 54.355 32.922 126.113 25.91 173.062-21.035 37.54-37.543 49.516-90.945 35.985-138.633zm0 0M130.559 468.46c-4.301 0-7.79-3.487-7.79-7.792 0-15.965 11-30.41 11.47-31.02a7.789 7.789 0 0110.925-1.41 7.79 7.79 0 011.426 10.91c-.082.11-8.242 10.926-8.242 21.52a7.791 7.791 0 01-7.79 7.793zm0 0M261.867 468.46a7.792 7.792 0 01-7.793-7.792c0-10.543-8.144-21.395-8.226-21.5a7.797 7.797 0 011.41-10.93 7.793 7.793 0 0110.93 1.41c.464.61 11.468 15.051 11.468 31.02a7.791 7.791 0 01-7.789 7.793zm0 0M196.21 473.93c-4.3 0-7.788-3.485-7.788-7.79v-22.98a7.791 7.791 0 0115.582 0v22.98c0 4.301-3.488 7.79-7.793 7.79zm0 0M226.852 466.27a7.789 7.789 0 01-7.793-7.79c0-6.398-3.317-12.488-3.348-12.546a7.785 7.785 0 012.898-10.63 7.787 7.787 0 0110.63 2.9c.55.968 5.402 9.757 5.402 20.276a7.788 7.788 0 01-7.79 7.79zm0 0M165.574 466.27a7.785 7.785 0 01-7.789-7.79c0-10.52 4.848-19.308 5.403-20.277a7.787 7.787 0 0110.628-2.898 7.785 7.785 0 012.914 10.597c-.109.2-3.367 6.18-3.367 12.578a7.788 7.788 0 01-7.789 7.79zm0 0"/>
    </g>
</svg>
