<svg xmlns="http://www.w3.org/2000/svg" viewBox="0 0 64 64">
    <path fill="#a1d51c" d="M52.05 20.84A4 4 0 0051 13a4 4 0 00-1-2.58 4 4 0 10-5.59-5.24A6.26 6.26 0 0043 5a6 6 0 00-2 .35A6 6 0 1039 17a6.25 6.25 0 001.79-.27 6 6 0 000 8.5A8 8 0 0037 32a8.12 8.12 0 00.75 3.38A7 7 0 0036 40a6.82 6.82 0 00.28 1.93A10.28 10.28 0 0033 50c0 5 2 9 4.5 9s-.5-3.45 1.5-8c.66-1.5 3.15-2.83 3.51-4H43a7 7 0 006.81-8.61A8 8 0 0053 32a8.33 8.33 0 00-.13-1.42 6 6 0 00-.82-9.74z"/>
    <path fill="#7ab92d" d="M49 37a3.93 3.93 0 00-.62-2.12A7.08 7.08 0 0049 32a7 7 0 00-3-5.72 6 6 0 00-1.44-8.09 5.93 5.93 0 00.25-3.61 6 6 0 00-4.21-4.36 6 6 0 00-3.66.14V10a4 4 0 00-2-3.45A6 6 0 0039 17a6.25 6.25 0 001.79-.27 6 6 0 000 8.5A8 8 0 0037 32a8.12 8.12 0 00.75 3.38A7 7 0 0036 40a6.82 6.82 0 00.28 1.93A10.28 10.28 0 0033 50a16.7 16.7 0 00.17 2.39v-.06a8 8 0 019.13-6.22 4 4 0 004.7-4V42a8 8 0 00-.14-1.48A4 4 0 0049 37z"/>
    <path fill="#c4f236" d="M46 35a7 7 0 00-3-5.72 6 6 0 00-1.44-8.09 5.93 5.93 0 00.25-3.61 6 6 0 00-4.21-4.36 6 6 0 00-3.66.14V13a4 4 0 00-4-4 4 4 0 00-3.88-4 3.67 3.67 0 00-2.65 1.13c-1.55 1.58-1.55 2.78-1.27 3.87H22a6 6 0 00-4.59 9.86A8 8 0 0013 27a8.25 8.25 0 00.32 2.24 6 6 0 00-1.14 11.05 10 10 0 002.39 12.36 22.09 22.09 0 013.68 3.68A11.5 11.5 0 0027.5 61h.93a2 2 0 001.74-2.34 8.1 8.1 0 010-3.29 8 8 0 019.13-6.22 4 4 0 004.7-4V45a8 8 0 00-.14-1.48A4 4 0 0046 40a3.93 3.93 0 00-.62-2.12A7.08 7.08 0 0046 35z"/>
    <g fill="#a1d51c">
        <path d="M30.06 56.09a11.64 11.64 0 01-4.81-3.76c-1-1.4-1.35-2.56-2.68-3.68A10 10 0 0119 41c0-1.7-.57-3.3.18-4.71a6 6 0 011.14-11A8.25 8.25 0 0120 23a8 8 0 014.41-7.14A6 6 0 0128.64 6a4 4 0 00-2.52-1 3.67 3.67 0 00-2.65 1.13c-1.61 1.58-1.61 2.78-1.33 3.87H22a6 6 0 00-4.59 9.86A8 8 0 0013 27a8.25 8.25 0 00.32 2.24 6 6 0 00-1.14 11.05 10 10 0 002.39 12.36 22.09 22.09 0 013.68 3.68A11.5 11.5 0 0027.5 61h.93a2 2 0 001.74-2.34 7.89 7.89 0 01-.11-2.57z"/>
        <path d="M30 38l-3 5 2.2-9.86A3 3 0 0028 30l-2.41 9.63a20 20 0 00-.59 4.81V55l1.88-7.15a19.94 19.94 0 014.4-8.6L35 35a2.52 2.52 0 00-3.38.39A12.54 12.54 0 0030 38z"/>
        <path d="M36.52 25.31a26.17 26.17 0 011.18-2.92c-1.79.94-3.4 2.86-4.42 6.23a20 20 0 00-.83 8.43 7 7 0 002.72-5 25.84 25.84 0 011.35-6.74zM23 22.9V24l1.58-.63a6.38 6.38 0 003.94-5l.17-1.17a6.06 6.06 0 01-4 3.5A2.33 2.33 0 0023 22.9zM23.27 38.78c.14 3.57.34 8.36.34 8.36s-2.34-6.65-3.53-11.61A2 2 0 0018.15 34l.52 3.36a48.78 48.78 0 005.58 16.28L25 55l.67-11.15a50.05 50.05 0 01.69-5.73l.56-3.12a3.65 3.65 0 00-3.65 3.78z"/>
    </g>
    <path fill="#7ab92d" d="M39 40a16.68 16.68 0 00-9.26 2.81 24.5 24.5 0 014.93-6.17l1-.9a1 1 0 10-1.34-1.48l-1 .9-.33.34v-2.09a12.29 12.29 0 014.65-9.63 1 1 0 00-1.25-1.56A14.29 14.29 0 0031 33.4v4.19a26.27 26.27 0 00-4.79 8.18A62.86 62.86 0 0129 29.29a1 1 0 10-2-.58c-.26.84-.48 1.69-.71 2.54a23.89 23.89 0 01-2-6.26l.4-.17A8.41 8.41 0 0030 17a1 1 0 00-2 0 6.41 6.41 0 01-3.91 5.92C24 22.29 24 21.64 24 21a1 1 0 00-2 0 25.84 25.84 0 003.63 13.18 64.87 64.87 0 00-1.39 16.91A36.81 36.81 0 0119.5 33a1 1 0 00-2 0 38.86 38.86 0 007.06 22.4v.2a1 1 0 001 .88h.07a1 1 0 00.93-1 24.34 24.34 0 011.34-8.63l1.25-1.12A14.81 14.81 0 0139 42a1 1 0 000-2z"/>
</svg>
