<svg xmlns="http://www.w3.org/2000/svg" viewBox="0 0 512 512"><path d="M206.256 10v35.727a99.491 99.491 0 0 0 41.703 80.988l63.274 45.147a139.387 139.387 0 0 1 58.427 113.465v1.405c0 57.051-30.145 109.858-79.271 138.865a161.265 161.265 0 0 1-81.994 22.401h-36.991a161.268 161.268 0 0 1-81.9-22.345l-.123-.073c-49.18-28.994-79.365-81.83-79.365-138.92v-1.333c0-45.04 21.764-87.305 58.427-113.465l63.274-45.147a99.488 99.488 0 0 0 41.703-80.988V10h32.836z" fill="#ff9155"/><path d="M465.791 169.185a89.24 89.24 0 0 0-3.927 81.613l28.903 63.446a125.023 125.023 0 0 1-5.501 114.341l-.63 1.091c-25.587 44.317-72.684 71.817-123.854 72.317a144.643 144.643 0 0 1-73.737-19.372l-25.628-14.796a144.652 144.652 0 0 1-53.597-54.087l-.063-.112c-25.2-44.578-24.951-99.157.653-143.504l.598-1.035a125.025 125.025 0 0 1 96.272-61.935l69.397-6.693a89.24 89.24 0 0 0 68.715-44.206l22.399 12.932z" fill="#ffcdac"/><path d="M415.036 231.229a128.923 128.923 0 0 1-36.521 9.045l-69.396 6.693c-27.288 2.632-51.763 18.378-65.47 42.119l-.599 1.035c-18.438 31.937-18.62 71.718-.473 103.821l.064.113a104.732 104.732 0 0 0 38.774 39.129l25.628 14.795a104.711 104.711 0 0 0 53.346 14.016c36.845-.36 71.18-20.408 89.604-52.318l.623-1.081c13.715-23.753 15.113-52.821 3.748-77.77l-28.903-63.446a128.969 128.969 0 0 1-10.425-36.151z" fill="#ffe6c3"/><g fill="#fff"><path d="M277.363 374.199l.044.076.055.097a64.707 64.707 0 0 0 23.955 24.174l25.626 14.794a64.733 64.733 0 0 0 32.327 8.662l.679-.004c22.714-.222 43.924-12.606 55.307-32.321l.607-1.054c7.278-12.606 8.021-28.004 2.003-41.215l-28.902-63.446a168.094 168.094 0 0 1-1.931-4.401 173.6 173.6 0 0 1-4.779.529l-69.395 6.693c-14.45 1.394-27.411 9.731-34.669 22.304l-.613 1.061c-11.367 19.682-11.489 44.23-.314 64.051z"/><path d="M333.751 373.466c26.332 14.732 43.818 15.323 51.359-4.575 6.9-18.206-21.288-49.175-21.288-49.175s-41.14-7.817-53.045 7.589c-13.012 16.836-3.358 31.429 22.974 46.161z"/></g><path d="M85.984 231.446c2.811-4.754 1.236-10.886-3.518-13.698-4.754-2.812-10.887-1.237-13.698 3.518-11.566 19.56-17.68 42.233-17.68 65.571v1.054c0 13.191 1.716 26.285 5.101 38.919 1.197 4.468 5.237 7.415 9.653 7.415a9.98 9.98 0 0 0 2.594-.344c5.334-1.429 8.5-6.912 7.071-12.247a130.42 130.42 0 0 1-4.419-33.744v-1.054c.001-19.757 5.152-38.91 14.896-55.39zM71.91 363.934a9.953 9.953 0 0 0 8.53 4.797c1.76 0 3.543-.465 5.162-1.439 4.719-2.84 6.241-8.981 3.419-13.711l-.065-.108c-2.859-4.709-8.974-6.199-13.692-3.357-4.719 2.84-6.241 8.981-3.419 13.711.013.022.051.086.065.107z"/><path d="M499.866 310.099l-28.903-63.446c-10.591-23.251-9.288-50.34 3.487-72.467 2.762-4.783 1.123-10.899-3.66-13.66l-22.399-12.933a10 10 0 0 0-13.66 3.66c-12.775 22.126-35.585 36.8-61.015 39.253l-69.397 6.693c-43.335 4.179-82.204 29.185-103.972 66.888l-.598 1.035c-27.249 47.194-27.517 105.984-.714 153.395l.08.142a154.5 154.5 0 0 0 12.973 19.339h-40.683a151.364 151.364 0 0 1-76.8-20.946l-.145-.086c-45.92-27.072-74.445-77.001-74.445-130.306v-1.333c0-41.719 20.275-81.093 54.236-105.326l63.273-45.147c28.739-20.505 45.895-53.824 45.895-89.128V20h12.836v25.727c0 35.304 17.157 68.623 45.895 89.128l57.064 40.717c4.496 3.209 10.741 2.164 13.948-2.332 3.208-4.496 2.164-10.741-2.332-13.949l-57.064-40.717c-23.489-16.76-37.511-43.992-37.511-72.848V10c0-5.523-4.477-10-10-10h-32.836c-5.523 0-10 4.477-10 10v35.727c0 28.855-14.023 56.087-37.512 72.848l-63.273 45.147C23.424 191.7.015 237.159.015 285.327v1.333c0 29.749 7.8 59.126 22.558 84.957 14.757 25.831 36.103 47.469 61.707 62.564l.145.086c22.186 13.08 47.032 20.941 72.588 23.1v18.96c0 5.522 4.477 10 10 10s10-4.478 10-10v-18.329h12v43.995c0 5.522 4.477 10 10 10s10-4.478 10-10v-43.995h12v18.329c0 5.522 4.477 10 10 10s10-4.478 10-10v-10.034a154.473 154.473 0 0 0 15.403 10.193l25.628 14.796a154.761 154.761 0 0 0 78.834 20.71c54.45-.531 105.189-30.157 132.417-77.318l.628-1.089c21.771-37.703 23.992-83.867 5.943-123.486zm-23.262 113.489l-.628 1.089c-23.706 41.059-67.883 66.853-115.291 67.317-24.075.2-47.799-6.001-68.64-18.033l-25.628-14.796a134.74 134.74 0 0 1-49.875-50.318l-.079-.142c-23.35-41.306-23.117-92.492.607-133.583l.598-1.035c18.544-32.119 51.654-53.419 88.572-56.98l69.397-6.693c28.509-2.75 54.386-17.763 70.976-40.753l5.958 3.44c-11.617 25.863-11.68 55.78.194 81.844l28.903 63.446c15.373 33.75 13.481 73.076-5.064 105.197z"/><path d="M445.283 335.009l.046.101a9.956 9.956 0 0 0 9.062 5.805c1.394 0 2.812-.292 4.165-.909 5.015-2.289 7.22-8.232 4.943-13.254l-.046-.101c-2.302-5.01-8.21-7.187-13.227-4.896-5.015 2.29-7.219 8.232-4.943 13.254z"/><path d="M462.578 365.558c-5.492-.618-10.434 3.344-11.044 8.833-1.154 10.374-4.376 20.2-9.58 29.213l-.619 1.074c-16.665 28.862-47.717 46.993-81.03 47.318l-.936.005a94.767 94.767 0 0 1-47.326-12.681l-25.627-14.795a94.755 94.755 0 0 1-35.084-35.415l-.051-.089c-16.413-29.035-16.25-65.016.424-93.895l.602-1.041c12.095-20.95 33.691-34.844 57.769-37.166l69.396-6.693a138.595 138.595 0 0 0 27.827-5.602 138.682 138.682 0 0 0 9.062 26.899l9.464 20.775c2.29 5.025 8.221 7.245 13.246 4.955 5.026-2.29 7.244-8.22 4.955-13.246l-9.463-20.775a118.825 118.825 0 0 1-9.618-33.346 9.998 9.998 0 0 0-13.703-7.912 118.802 118.802 0 0 1-33.689 8.344l-69.396 6.693c-30.498 2.941-57.851 20.539-73.166 47.067l-.602 1.041c-20.201 34.988-20.399 78.571-.504 113.766l.051.089a114.731 114.731 0 0 0 42.48 42.868l25.627 14.795a114.792 114.792 0 0 0 57.326 15.36l1.119-.005c40.366-.396 77.981-22.358 98.171-57.325l.619-1.074c6.589-11.411 10.671-23.858 12.132-36.994.611-5.486-3.343-10.431-8.832-11.041z"/><path d="M296.417 407.205l25.625 14.794a74.81 74.81 0 0 0 37.384 10.002l.719-.004c26.253-.257 50.726-14.558 63.873-37.326l.604-1.048c8.885-15.389 9.798-34.216 2.443-50.36l-28.903-63.448a157.952 157.952 0 0 1-1.815-4.139 10.006 10.006 0 0 0-10.452-6.038c-1.498.187-2.999.354-4.502.498l-69.395 6.693c-17.661 1.703-33.5 11.894-42.365 27.252l-.617 1.066c-13.127 22.736-13.267 51.077-.363 73.964l.049.086.056.097a74.696 74.696 0 0 0 27.659 27.911zm-10.085-92.053l.617-1.066a35.087 35.087 0 0 1 26.968-17.35l67.031-6.466 27.917 61.282c4.682 10.277 4.097 22.267-1.566 32.076l-.604 1.048c-9.622 16.665-27.534 27.135-46.704 27.321l-.622.003a54.735 54.735 0 0 1-27.328-7.322l-25.625-14.794a54.717 54.717 0 0 1-20.348-20.607l-.018-.031c-9.423-16.747-9.314-37.473.282-54.094z"/><path d="M328.868 382.193c14.44 8.078 26.201 12.03 36.091 12.03 3.922 0 7.55-.621 10.933-1.854 8.479-3.087 14.727-9.795 18.57-19.936 8.637-22.788-17.847-53.52-23.243-59.449a9.996 9.996 0 0 0-5.529-3.094c-7.876-1.496-47.922-7.984-62.824 11.299-6.631 8.581-9.078 17.415-7.273 26.256 2.535 12.425 13.109 23.466 33.275 34.748zm-10.179-48.775c3.177-4.111 12.824-5.684 23.217-5.684 5.668 0 11.56.469 16.741 1.247 9.571 11.337 19.972 28.819 17.112 36.365-2.544 6.714-5.68 7.855-6.711 8.231-4.041 1.467-12.595 1.131-30.415-8.839v-.001c-17.82-9.969-22.586-17.082-23.446-21.294-.22-1.074-.887-4.344 3.502-10.025z"/></svg>
