<svg viewBox="0 -32 512 511" xmlns="http://www.w3.org/2000/svg"><path d="M246.316.504C191.898.102 144.652 31 121.516 76.266c-19.934 39.011-43.797 75.93-72.97 108.613C24.122 212.242 1.02 252.766.052 308.613.016 309.824 0 311.035 0 312.25c0 75.07 60.86 135.93 135.93 135.93.144 0 .285-.004.43-.004a161.34 161.34 0 0 0 3.077-.04c135.47-1.878 244.711-112.261 244.711-248.175v-58.832c0-76.582-61.253-140.059-137.832-140.625zm0 0" fill="#f0a65f"/><path d="M384.148 199.96V141.13c0-46.863-22.941-88.816-58.293-114.45v-.003c16.985 23.386 27 52.199 27 83.156v14.285c0 25.188-18.144 46.676-42.953 51.012-12.953 2.266-25.652 3.742-38.234 4.457-40.82 2.316-77.906 18.508-107.258 46.828-.785.746-1.562 1.504-2.332 2.274-23.758 23.753-36.84 55.34-36.84 88.937 0 19.676 5.598 37.508 12.598 52.113 10.402 21.711-5.027 47.032-29.102 47.102h-.59c-36.859 0-60.398-9.387-82.699-25.399 24.668 34.356 64.961 56.739 110.485 56.739 135.254-.66 248.218-112.473 248.218-248.22zm0 0" fill="#e28540"/><path d="M312.195 202.91a7.81 7.81 0 0 1-7.347-5.176c-.278-.75-6.102-15.949-24.364-22.32a7.807 7.807 0 0 1-4.796-9.941c1.417-4.067 5.87-6.223 9.94-4.797 25.626 8.937 33.602 30.906 33.93 31.84a7.804 7.804 0 0 1-4.777 9.949 7.78 7.78 0 0 1-2.586.445zm0 0" fill="#e28540"/><path d="M481.512 207.68c-29.496-29.938-72.164-38.86-109.516-26.778-32.183 10.414-65.371 17.547-99.144 19.461-28.282 1.61-63.024 11.117-94.043 41.082-.68.645-1.348 1.297-2.012 1.961-40.992 40.992-40.992 107.45 0 148.442l.234.23a97.001 97.001 0 0 0 1.703 1.66c74.996 72.942 194.914 72.32 269.125-1.89l32.125-32.125c41.817-41.817 43.028-109.918 1.528-152.043zm0 0" fill="#f0a65f"/><g fill="#e28540"><path d="M481.512 207.68a108.03 108.03 0 0 0-14.352-12.223c29.883 42.133 25.2 101.219-12.512 138.93l-32.125 32.125c-69.949 69.949-180.496 74.508-255.765 13.722 3.015 4.711 11.402 12.961 11.976 13.504 74.996 72.942 194.914 72.32 269.125-1.89l32.125-32.125c41.817-41.817 43.028-109.918 1.528-152.043zm0 0M153.531 43.668c.168-.012 16.942-1.129 33.239 4.71a7.804 7.804 0 0 0 9.98-4.715 7.805 7.805 0 0 0-4.715-9.98c-11.09-3.976-22.2-5.25-29.824-5.601a139.987 139.987 0 0 0-15.047 13.008c1.559 1.738 3.863 2.77 6.367 2.578zm0 0M199.813 173.77a7.807 7.807 0 0 1-6.415-3.344c-10.925-15.696-35.074-16.43-35.316-16.43a7.805 7.805 0 0 1-7.707-7.902 7.8 7.8 0 0 1 7.8-7.707h.098c1.313.015 32.293.652 47.938 23.117a7.806 7.806 0 0 1-1.945 10.863 7.75 7.75 0 0 1-4.453 1.403zm0 0M306.984 100.926a7.813 7.813 0 0 1-7.578-5.969c-4.281-17.668-24.363-22.113-25.215-22.297-4.207-.887-6.914-5.012-6.043-9.222a7.79 7.79 0 0 1 9.176-6.067c1.246.25 30.61 6.504 37.254 33.906a7.807 7.807 0 0 1-7.594 9.649zm0 0M105.102 265.348a7.803 7.803 0 0 1-7.532-5.778c-5.804-21.562-33.761-25.468-34.043-25.508-4.261-.558-7.285-4.464-6.738-8.73.55-4.266 4.438-7.285 8.7-6.754 1.573.195 38.605 5.18 47.156 36.934a7.81 7.81 0 0 1-7.543 9.836zm0 0M398.496 175.906a107.806 107.806 0 0 0-21.02 3.403 7.782 7.782 0 0 0 4.63 5.336c.246.101 24.671 10.246 27.449 32.25a7.808 7.808 0 0 0 8.722 6.765 7.808 7.808 0 0 0 6.766-8.722c-2.508-19.868-16.48-32.426-26.547-39.032zm0 0"/><path d="M342.363 279.914c-4.015 0-7.43-3.082-7.765-7.156-1.664-19.969-25.356-30.88-25.59-30.988-3.922-1.77-5.684-6.383-3.926-10.31 1.758-3.925 6.352-5.694 10.285-3.944 1.32.586 32.348 14.699 34.785 43.945a7.8 7.8 0 0 1-7.789 8.453zm0 0M423.535 302.813a7.81 7.81 0 0 1-7.746-6.915c-1.57-13.636-14.602-21.035-14.73-21.109-3.754-2.086-5.133-6.824-3.067-10.586 2.067-3.762 6.762-5.164 10.535-3.117.828.445 20.254 11.203 22.77 33.023a7.81 7.81 0 0 1-6.86 8.649c-.3.035-.605.055-.902.055zm0 0M201.879 276.793a7.806 7.806 0 0 1-7.79-7.414c-.726-14.566-18.632-18.281-18.816-18.32a7.805 7.805 0 0 1 3.04-15.309c10.382 2.059 30.304 11.574 31.367 32.848.215 4.304-3.102 7.972-7.407 8.183a6.554 6.554 0 0 1-.394.012zm0 0M336.324 396.844a7.797 7.797 0 0 0-9.703-5.254 7.804 7.804 0 0 0-5.258 9.703c6.809 22.89-6.324 39.992-6.945 40.777a7.794 7.794 0 0 0-1.629 5.903c5.66-.016 11.32-.282 16.961-.793 5.004-8.348 13.484-27.114 6.574-50.336zm0 0"/></g></svg>
