<svg xmlns="http://www.w3.org/2000/svg" viewBox="0 0 57 57">
	<path fill="#d75a4a" d="M30.928 57c-.628-6.11-3.639-8.8-9.593-13.704-4.853-3.997-5.867-6.846-5.481-12.333C16.625 20 30.928 20 30.928 20h-.149s14.303 0 15.074 10.963c.386 5.487-.628 8.336-5.481 12.333C34.418 48.2 31.407 50.89 30.779 57h.149z"/>
	<path fill="#88c057" d="M27.854 15.22l-4.998 1.046a12.255 12.255 0 01-13.252-6.099L7.146 5.69l4.998-1.046a12.255 12.255 0 0113.252 6.099l2.458 4.477z"/>
	<path fill="#659c35" d="M49.854 0l-5.051.752a12.253 12.253 0 00-10.315 10.315l-.752 5.051 5.051-.752A12.253 12.253 0 0049.102 5.051L49.854 0z"/>
	<path fill="#7a3726" d="M31.855 20a.998.998 0 01-.851-.474c-1.735-2.803-2.131-8.227-2.147-8.457a1 1 0 111.995-.139c.003.051.378 5.162 1.853 7.543a.998.998 0 01-.85 1.527z"/>
	<path fill="#e6e6e6" d="M40.372 43.296c.049-.04.091-.079.139-.118-2.189-2.916-5.665-4.811-9.592-4.811-3.958 0-7.457 1.924-9.643 4.879l.059.05c5.764 4.747 8.763 7.43 9.518 13.14.756-5.71 3.754-8.393 9.519-13.14zM30.928 57c-.02-.195-.049-.376-.074-.564-.025.188-.054.37-.074.564h.148z"/>
</svg>
