<svg xmlns="http://www.w3.org/2000/svg" data-name="filled outline" viewBox="0 0 64 64">
    <path fill="#4bbf6c" d="M35 38l1.41 1.058A9.709 9.709 0 0042.237 41a9.71 9.71 0 008.524-5.06A26.535 26.535 0 0054 23.234 21.08 21.08 0 0043.378 4.93 14.651 14.651 0 0036.11 3h-8.218a14.651 14.651 0 00-7.27 1.93A21.08 21.08 0 0010 23.234a26.535 26.535 0 003.24 12.706A9.71 9.71 0 0021.764 41h.466a10 10 0 005.145-1.425L30 38z"/>
    <path fill="#55d97a" d="M35 12v28.196a6 6 0 00.211 1.58l1.333 4.886a11.065 11.065 0 01-1.94 9.705A12 12 0 0125.13 61H23a2 2 0 01-2-2 2 2 0 012-2h1.253a8 8 0 006.146-2.879l.17-.204a7.065 7.065 0 001.34-6.554l-1.656-5.52A6 6 0 0130 40.12V12a2 2 0 012-2h1a2 2 0 012 2z"/>
    <path fill="#231f20" d="M43.875 4.062A15.678 15.678 0 0036.109 2h-8.218a15.678 15.678 0 00-7.766 2.062A22.13 22.13 0 009 23.234a27.614 27.614 0 003.362 13.185A10.703 10.703 0 0021.764 42h.466a11 11 0 005.66-1.568l1.11-.666v.354a7.007 7.007 0 00.295 2.01l1.656 5.52a6.052 6.052 0 01-1.15 5.627l-.17.204A6.983 6.983 0 0124.253 56H23a3 3 0 000 6h2.13a12.914 12.914 0 0010.262-5.019A12.124 12.124 0 0037.51 46.4l-1.333-4.886A5.004 5.004 0 0136 40.196v-.208a10.695 10.695 0 0015.638-3.57A27.614 27.614 0 0055 23.235 22.13 22.13 0 0043.875 4.062zm6.007 31.399a8.708 8.708 0 01-12.87 2.797L36 37.5v-4.02l.72-.576A13.302 13.302 0 0145 30v-2a15.301 15.301 0 00-9 2.956V20.48l.72-.576A13.302 13.302 0 0145 17v-2a15.301 15.301 0 00-9 2.956V10h-2v30.196a7.02 7.02 0 00.247 1.843l1.333 4.886a10.113 10.113 0 01-1.767 8.828A10.928 10.928 0 0125.131 60H23a1 1 0 010-2h1.253a8.978 8.978 0 006.914-3.238l.17-.205a8.05 8.05 0 001.53-7.481l-1.656-5.52A4.993 4.993 0 0131 40.12V13h-2v8.11A7.036 7.036 0 0024 19h-2v2h2a5.024 5.024 0 014 2l1 1.333v6.623A15.301 15.301 0 0020 28h-3v2h3a13.302 13.302 0 018.28 2.904l.72.576v3.954l-2.14 1.283A8.999 8.999 0 0122.23 40h-.466a8.704 8.704 0 01-7.646-4.54A25.606 25.606 0 0111 23.235 20.126 20.126 0 0121.118 5.798 13.68 13.68 0 0127.89 4h8.218a13.68 13.68 0 016.773 1.798A20.126 20.126 0 0153 23.234a25.606 25.606 0 01-3.118 12.227z"/>
    <path fill="#231f20" d="M43.875 4.062A15.678 15.678 0 0036.109 2h-8.218a15.678 15.678 0 00-7.766 2.062A22.13 22.13 0 009 23.234a27.614 27.614 0 003.362 13.185A10.703 10.703 0 0021.764 42h.466a11 11 0 005.66-1.568l1.11-.666v.354a7.007 7.007 0 00.295 2.01l1.656 5.52a6.052 6.052 0 01-1.15 5.627l-.17.204A6.983 6.983 0 0124.253 56H23a3 3 0 000 6h2.13a12.914 12.914 0 0010.262-5.019A12.124 12.124 0 0037.51 46.4l-1.333-4.886A5.004 5.004 0 0136 40.196v-.208a10.695 10.695 0 0015.638-3.57A27.614 27.614 0 0055 23.235 22.13 22.13 0 0043.875 4.062zm6.007 31.399a8.708 8.708 0 01-12.87 2.797L36 37.5v-4.02l.72-.576A13.302 13.302 0 0145 30v-2a15.301 15.301 0 00-9 2.956V20.48l.72-.576A13.302 13.302 0 0145 17v-2a15.301 15.301 0 00-9 2.956V10h-2v30.196a7.02 7.02 0 00.247 1.843l1.333 4.886a10.113 10.113 0 01-1.767 8.828A10.928 10.928 0 0125.131 60H23a1 1 0 010-2h1.253a8.978 8.978 0 006.914-3.238l.17-.205a8.05 8.05 0 001.53-7.481l-1.656-5.52A4.993 4.993 0 0131 40.12V13h-2v8.11A7.036 7.036 0 0024 19h-2v2h2a5.024 5.024 0 014 2l1 1.333v6.623A15.301 15.301 0 0020 28h-3v2h3a13.302 13.302 0 018.28 2.904l.72.576v3.954l-2.14 1.283A8.999 8.999 0 0122.23 40h-.466a8.704 8.704 0 01-7.646-4.54A25.606 25.606 0 0111 23.235 20.126 20.126 0 0121.118 5.798 13.68 13.68 0 0127.89 4h8.218a13.68 13.68 0 016.773 1.798A20.126 20.126 0 0153 23.234a25.606 25.606 0 01-3.118 12.227z"/>
</svg>
